<?xml version="1.0" standalone="no"?>
<!DOCTYPE svg PUBLIC "-//W3C//DTD SVG 20010904//EN"
 "http://www.w3.org/TR/2001/REC-SVG-20010904/DTD/svg10.dtd">
<svg version="1.0" xmlns="http://www.w3.org/2000/svg"
 width="700.000000pt" height="700.000000pt" viewBox="0 0 700.000000 700.000000"
 preserveAspectRatio="xMidYMid meet">
<metadata>
Created by potrace 1.14, written by Peter Selinger 2001-2017
</metadata>
<g transform="translate(0.000000,700.000000) scale(0.100000,-0.100000)"
fill="#000000" stroke="none">
<path d="M2483 6819 c-10 -4 -21 -5 -25 -2 -5 2 -8 -1 -8 -7 0 -6 -4 -9 -8 -6
-5 3 -21 -1 -35 -9 -15 -8 -31 -15 -35 -16 -13 -3 -32 -9 -49 -16 -10 -3 -21
-7 -25 -8 -5 -2 -11 -4 -15 -5 -5 -1 -11 -2 -15 -1 -5 0 -8 -3 -8 -9 0 -5 -6
-10 -12 -10 -7 0 -38 -12 -68 -27 -30 -14 -57 -27 -60 -28 -3 -1 -18 -8 -35
-15 -16 -7 -33 -13 -37 -12 -5 1 -8 -2 -8 -6 0 -4 -16 -14 -35 -21 -19 -7 -35
-17 -35 -22 0 -5 -7 -9 -16 -9 -9 0 -28 -8 -42 -18 -15 -10 -39 -24 -54 -32
-16 -7 -28 -17 -28 -22 0 -5 -4 -7 -9 -4 -4 3 -19 -3 -31 -14 -12 -11 -31 -22
-41 -25 -11 -4 -19 -11 -19 -16 0 -5 -7 -9 -15 -9 -8 0 -24 -9 -35 -20 -11
-11 -20 -17 -20 -14 0 3 -6 -1 -14 -8 -22 -21 -69 -53 -73 -50 -2 1 -15 -10
-28 -24 -14 -15 -25 -24 -25 -21 0 6 -34 -21 -81 -65 -16 -15 -29 -24 -29 -21
0 4 -8 -2 -19 -13 -16 -16 -51 -48 -148 -132 -13 -10 -20 -22 -16 -26 3 -3 1
-6 -6 -6 -15 0 -41 -25 -41 -39 0 -6 -3 -10 -7 -9 -5 2 -25 -14 -46 -35 -21
-20 -35 -37 -32 -37 4 0 -4 -9 -19 -21 -14 -11 -23 -26 -19 -32 3 -7 3 -9 -1
-5 -9 7 -52 -33 -48 -44 1 -5 -5 -8 -14 -8 -8 0 -13 -4 -10 -8 3 -5 -4 -14
-14 -22 -10 -8 -17 -17 -14 -22 3 -4 -2 -8 -11 -8 -9 0 -13 -4 -10 -10 3 -5 1
-10 -5 -10 -6 0 -8 -5 -4 -12 4 -7 3 -8 -5 -4 -7 5 -16 -4 -24 -23 -7 -17 -16
-28 -20 -24 -4 3 -7 -1 -7 -10 0 -10 -4 -17 -10 -17 -5 0 -10 -4 -10 -10 0 -5
-8 -18 -17 -28 -28 -30 -47 -55 -62 -85 -8 -15 -18 -27 -23 -27 -4 0 -8 -7 -8
-15 0 -8 -4 -15 -8 -15 -10 0 -37 -50 -34 -62 1 -5 -2 -8 -7 -8 -5 0 -16 -12
-24 -27 -35 -69 -53 -98 -59 -101 -5 -2 -8 -8 -8 -14 0 -6 -8 -17 -18 -25 -10
-9 -11 -11 -2 -7 10 5 8 -1 -5 -16 -11 -13 -14 -20 -6 -15 8 5 3 -7 -11 -26
-14 -19 -31 -49 -39 -66 -8 -18 -17 -33 -21 -33 -5 0 -7 -3 -6 -7 4 -14 -26
-83 -36 -83 -5 0 -7 -3 -3 -6 3 -3 -5 -26 -18 -52 -13 -25 -20 -52 -17 -60 3
-9 1 -13 -5 -9 -10 6 -29 -55 -24 -76 1 -5 -3 -6 -9 -2 -5 3 -11 0 -11 -7 -3
-27 -4 -34 -16 -53 -6 -11 -11 -24 -12 -30 -1 -5 -6 -25 -12 -42 -6 -18 -7
-38 -3 -44 4 -7 3 -9 -3 -6 -6 4 -19 -29 -33 -81 -12 -48 -28 -93 -34 -101 -9
-12 -8 -13 4 -6 13 8 13 7 1 -8 -7 -9 -10 -17 -6 -17 4 0 3 -6 -2 -12 -6 -7
-9 -21 -8 -30 2 -10 0 -18 -4 -18 -4 0 -8 -6 -9 -12 -1 -7 -4 -29 -7 -48 -3
-19 -7 -51 -9 -71 -2 -20 -7 -42 -10 -48 -4 -6 -4 -15 -1 -21 3 -6 2 -10 -3
-10 -5 0 -9 -6 -10 -12 -2 -33 -11 -103 -12 -103 -3 0 -10 -81 -15 -160 -2
-38 -5 -70 -6 -70 -5 0 -9 -103 -9 -270 1 -210 2 -235 13 -252 4 -6 3 -14 -3
-18 -6 -4 -8 -11 -5 -16 3 -5 8 -37 11 -71 3 -35 7 -72 8 -83 1 -11 4 -24 7
-30 3 -5 5 -25 4 -42 -1 -18 2 -33 7 -33 4 0 5 -7 2 -15 -3 -8 -2 -19 2 -26 7
-12 16 -69 15 -101 0 -10 3 -18 7 -18 4 0 8 -17 9 -37 1 -21 6 -39 11 -41 4
-1 7 -16 6 -32 -1 -17 2 -30 8 -30 5 0 6 -5 3 -10 -4 -6 -2 -16 3 -23 5 -7 9
-24 8 -39 -1 -14 2 -25 5 -22 7 4 25 -73 21 -88 -1 -5 3 -8 9 -8 6 0 9 -6 6
-14 -3 -8 -1 -16 5 -18 6 -2 12 -19 14 -38 3 -18 9 -39 14 -45 6 -7 11 -24 12
-39 1 -14 6 -26 11 -26 4 0 6 -4 2 -9 -3 -5 -1 -12 5 -16 6 -4 8 -11 5 -16 -4
-5 -1 -9 4 -9 6 0 11 -11 11 -25 0 -14 5 -25 10 -25 6 0 10 -6 10 -13 0 -14
58 -151 75 -177 5 -8 10 -19 10 -25 2 -18 24 -63 35 -70 5 -3 8 -11 5 -16 -4
-5 -2 -9 3 -9 4 0 14 -16 22 -35 7 -19 16 -32 20 -30 3 2 7 -6 7 -17 1 -12 6
-24 11 -27 10 -6 42 -65 43 -78 0 -5 7 -12 15 -16 8 -4 14 -17 14 -28 0 -11 6
-22 14 -25 7 -3 21 -23 31 -44 10 -22 22 -37 28 -33 6 4 8 0 4 -10 -3 -10 -2
-17 4 -17 5 0 13 -8 16 -17 4 -10 15 -26 26 -36 11 -9 16 -17 12 -17 -4 0 4
-11 18 -24 14 -13 24 -26 21 -29 -2 -2 9 -18 25 -36 16 -17 27 -31 24 -31 -2
0 2 -6 9 -13 7 -8 24 -28 38 -46 14 -19 33 -40 42 -49 9 -9 14 -20 11 -25 -4
-6 1 -8 10 -4 12 4 17 1 17 -12 0 -10 11 -24 25 -31 14 -7 23 -15 20 -18 -5
-5 190 -200 252 -252 23 -19 39 -38 37 -42 -3 -4 0 -8 5 -8 6 0 13 0 16 0 3 0
20 -15 40 -33 42 -39 51 -46 94 -77 44 -31 70 -51 86 -68 8 -6 18 -12 24 -12
6 0 11 -4 11 -10 0 -5 9 -10 21 -10 11 0 17 -4 14 -10 -3 -5 1 -10 9 -10 9 0
16 -4 16 -10 0 -5 7 -10 15 -10 8 0 15 -4 15 -10 0 -5 7 -10 15 -10 8 0 15 -5
15 -11 0 -5 4 -8 9 -5 5 4 11 3 13 -2 5 -13 106 -71 112 -65 3 4 6 2 6 -4 0
-6 13 -16 30 -22 17 -5 30 -15 30 -21 0 -6 4 -9 9 -6 5 3 14 -1 21 -9 7 -8 21
-15 31 -15 11 0 19 -4 19 -10 0 -5 3 -10 8 -9 15 2 52 -14 52 -23 0 -6 7 -8
15 -4 8 3 15 1 15 -4 0 -6 4 -10 9 -10 5 0 29 -9 55 -20 25 -12 49 -20 52 -20
4 1 10 -2 13 -7 7 -9 127 -54 151 -56 8 -1 17 -5 20 -8 3 -3 23 -12 45 -20 35
-13 59 -15 126 -10 9 0 19 11 23 24 3 13 17 40 30 60 14 20 23 37 19 37 -3 0
4 9 16 19 12 11 22 22 22 25 -3 20 0 26 9 21 6 -3 10 -1 10 4 0 12 8 21 76 93
24 26 54 53 65 59 12 6 18 17 15 25 -3 9 -1 12 5 9 5 -4 16 -1 24 5 8 7 15 10
15 7 0 -3 14 7 32 23 17 16 35 27 40 24 4 -3 8 0 8 6 0 6 4 9 9 5 6 -3 14 3
20 12 6 10 11 14 11 9 0 -5 7 -3 15 4 8 7 15 9 15 4 0 -5 4 -3 9 5 5 8 18 16
28 17 21 3 57 12 61 14 1 2 7 4 12 5 6 1 12 4 15 5 3 1 10 4 15 5 6 1 11 3 13
5 10 8 37 6 37 -3 0 -9 2 -9 8 0 4 7 23 13 42 14 19 2 41 7 48 12 7 6 12 6 12
0 0 -11 29 -11 48 1 7 4 12 2 12 -5 0 -8 4 -8 15 1 11 9 15 9 15 1 0 -7 5 -9
13 -4 17 11 31 10 39 -1 4 -6 13 -5 22 3 9 8 16 9 16 4 0 -8 28 -14 70 -15 8
-1 21 -6 29 -12 12 -9 13 -8 6 4 -7 12 -6 13 6 4 8 -6 25 -14 39 -17 14 -3 36
-8 50 -12 14 -4 33 -7 43 -7 9 1 17 -4 17 -9 0 -6 9 -8 19 -4 11 3 25 -1 34
-10 9 -8 22 -15 29 -15 8 0 20 -6 27 -12 11 -11 13 -10 7 2 -4 8 2 4 14 -10
12 -14 18 -19 14 -11 -4 9 -2 12 7 9 8 -3 13 -11 11 -18 -2 -7 3 -10 12 -7 9
4 21 -2 28 -12 13 -19 18 -21 43 -21 8 0 15 -7 15 -16 0 -8 5 -12 10 -9 10 6
45 -18 98 -65 12 -12 22 -18 22 -15 0 3 6 0 14 -7 8 -7 12 -15 10 -17 -2 -2 8
-12 21 -23 14 -11 25 -26 25 -34 0 -9 5 -12 11 -8 7 4 10 1 7 -6 -2 -7 6 -24
19 -38 12 -13 20 -29 16 -35 -4 -6 0 -8 9 -4 9 3 15 0 15 -6 -1 -35 4 -48 16
-41 7 5 6 0 -3 -11 -9 -11 -10 -16 -3 -11 12 6 17 -4 11 -20 -5 -10 32 -25 43
-18 6 3 15 1 19 -7 7 -10 11 -10 24 0 9 8 16 10 16 6 0 -4 11 0 25 9 14 9 25
14 25 10 0 -3 12 1 26 11 15 9 23 12 19 5 -4 -7 4 -5 17 4 14 9 28 13 31 9 4
-3 7 -1 7 5 0 7 3 11 8 10 4 -1 23 4 42 11 19 8 38 13 43 12 4 0 7 3 7 9 0 6
3 9 8 9 4 -1 10 0 15 1 4 1 10 3 15 4 4 1 21 9 38 19 17 9 34 13 38 10 3 -4 6
-2 6 4 0 10 36 26 53 24 4 -1 7 4 7 11 0 6 3 9 6 5 3 -3 23 5 44 18 21 13 41
21 44 18 3 -4 6 -1 6 5 0 7 3 11 8 10 4 -1 18 5 32 13 14 9 59 35 100 59 41
24 77 47 78 52 2 4 10 8 17 8 8 0 20 6 27 13 27 24 137 97 148 97 6 0 8 5 5
10 -3 6 -1 10 5 10 6 0 18 6 25 13 25 23 84 68 91 70 7 2 41 32 131 114 25 24
50 43 55 43 5 0 7 4 3 9 -3 5 4 12 15 16 11 3 19 9 17 13 -1 4 2 8 6 9 5 1 20
14 34 30 14 15 52 56 84 90 33 34 59 67 59 73 0 6 5 8 10 5 6 -3 10 -2 10 3 0
5 10 20 23 34 12 13 38 44 57 68 19 24 43 52 53 62 9 10 18 21 19 26 1 4 5 12
10 17 4 6 19 24 33 41 14 18 25 35 25 38 0 6 24 36 48 62 7 8 10 14 5 14 -4 0
-3 4 3 8 14 10 76 112 67 112 -3 0 4 9 17 20 13 11 20 20 16 20 -4 0 4 17 18
37 14 20 23 40 20 45 -3 4 0 8 6 8 9 0 34 49 30 59 -1 2 3 7 10 11 6 4 12 16
13 28 0 11 4 19 8 16 8 -4 25 35 21 49 -1 4 2 7 7 7 5 0 12 10 16 22 10 31 8
27 38 87 14 29 24 58 21 62 -3 5 -1 9 3 9 7 0 32 53 39 83 1 4 3 9 4 12 1 3 3
8 4 13 1 4 5 13 9 19 10 17 41 116 39 125 -1 5 3 8 9 8 6 0 9 6 6 14 -3 7 0
19 6 25 6 6 7 11 3 11 -5 0 -3 7 4 15 7 8 9 15 5 15 -4 0 -3 6 2 13 9 10 41
97 49 132 2 6 6 21 9 35 4 14 8 36 9 50 2 14 6 39 9 55 6 27 11 57 23 135 2
14 6 48 9 75 3 28 7 59 9 70 3 11 5 35 5 53 1 21 5 31 12 26 8 -4 8 0 0 15 -7
11 -8 21 -4 21 4 0 8 26 8 58 0 31 3 63 8 70 6 7 6 12 0 12 -5 0 -9 9 -9 20 0
11 3 20 6 20 8 0 5 527 -4 580 -10 62 -12 73 -19 90 -4 8 -8 35 -11 60 -2 25
-5 46 -6 48 -3 3 -5 12 -13 63 -13 76 -17 99 -33 163 -22 91 -26 110 -27 124
0 6 -4 12 -9 12 -4 0 -8 11 -8 25 0 14 -4 33 -9 43 -11 19 -25 73 -23 85 1 4
-3 7 -8 7 -5 0 -9 3 -8 8 1 4 -4 25 -10 47 -6 22 -11 42 -10 45 0 3 -9 24 -20
46 -12 23 -18 44 -15 48 4 3 1 6 -5 6 -6 0 -13 14 -17 30 -4 17 -11 30 -16 30
-6 0 -9 6 -8 13 2 19 -12 57 -22 57 -5 0 -8 3 -8 8 1 4 0 10 -1 15 -1 4 -4 10
-5 15 -11 33 -31 72 -38 72 -4 0 -6 4 -3 8 3 5 -6 30 -19 57 -14 27 -25 44
-25 40 0 -5 -17 23 -37 63 -21 39 -45 79 -53 89 -9 10 -16 23 -18 28 -1 6 -8
17 -16 27 -8 9 -12 19 -9 22 4 3 1 6 -5 6 -7 0 -12 6 -12 13 0 7 -9 23 -20 35
-12 12 -17 22 -13 22 4 0 0 5 -9 11 -10 5 -18 16 -18 23 0 8 -7 19 -15 26 -9
7 -14 15 -11 17 2 2 -6 14 -18 27 -11 12 -28 32 -36 45 -14 21 -35 49 -60 79
-6 6 -7 12 -3 12 4 1 -3 7 -17 15 -14 8 -22 14 -18 15 4 0 0 9 -9 19 -9 11
-21 17 -26 14 -6 -3 -7 -2 -4 4 7 11 -53 81 -185 216 -49 49 -88 94 -88 99 0
5 -4 7 -9 4 -4 -3 -38 23 -74 57 -37 34 -85 75 -107 91 -22 17 -40 33 -40 38
0 4 -7 8 -15 8 -7 0 -19 8 -24 18 -6 9 -11 13 -11 8 0 -5 -9 1 -20 14 -11 13
-20 20 -20 16 0 -4 -10 2 -22 14 -12 11 -34 25 -49 32 -15 7 -26 15 -23 19 2
4 -10 12 -26 19 -17 7 -30 17 -30 22 0 5 -5 6 -10 3 -6 -3 -13 1 -16 9 -3 9
-15 16 -25 16 -10 0 -19 5 -19 10 0 6 -7 10 -15 10 -8 0 -15 5 -15 11 0 5 -4
8 -9 5 -5 -4 -11 -2 -13 2 -1 5 -32 25 -68 44 -94 51 -134 72 -140 73 -3 0
-19 8 -36 18 -17 9 -34 13 -38 10 -3 -4 -6 -2 -6 4 0 9 -47 33 -72 37 -3 1
-10 4 -14 9 -4 4 -16 7 -26 7 -10 0 -18 4 -18 8 0 5 -6 9 -12 10 -25 2 -88 27
-88 34 0 5 -10 8 -23 8 -13 0 -27 3 -31 7 -6 7 -29 13 -53 15 -7 1 -13 5 -13
10 0 5 -22 8 -49 7 -37 -2 -48 -6 -44 -16 3 -7 0 -13 -7 -13 -10 0 -10 -3 0
-15 9 -10 9 -15 1 -15 -6 0 -11 -8 -11 -18 0 -10 -5 -23 -12 -30 -7 -7 -9 -12
-5 -12 9 0 -39 -97 -53 -105 -6 -4 -8 -10 -6 -14 3 -4 -8 -22 -24 -40 -17 -18
-30 -34 -30 -36 0 -9 -71 -75 -80 -75 -6 0 -15 -9 -22 -20 -7 -11 -18 -20 -24
-20 -7 0 -15 -7 -18 -16 -4 -9 -9 -14 -13 -11 -3 4 -17 -2 -31 -13 -13 -11
-28 -18 -32 -15 -4 3 -13 -2 -20 -10 -7 -8 -16 -12 -21 -9 -5 3 -12 -2 -15
-10 -3 -9 -10 -14 -14 -11 -4 3 -20 -5 -36 -18 -16 -12 -30 -21 -31 -19 -2 1
-4 2 -5 1 -13 -4 -45 -10 -55 -11 -7 -1 -13 -5 -13 -10 0 -5 -5 -6 -11 -2 -6
3 -15 0 -20 -7 -7 -12 -9 -12 -9 0 0 10 -3 11 -13 3 -14 -12 -87 -24 -154 -26
-24 0 -43 -3 -43 -6 0 -12 -299 2 -319 14 -5 4 -26 7 -46 8 -19 1 -35 5 -35
10 0 5 -6 8 -12 7 -27 -5 -88 13 -81 24 3 6 1 7 -5 3 -6 -4 -25 0 -42 9 -16 8
-30 13 -30 10 0 -2 -9 3 -20 13 -12 9 -24 17 -28 17 -4 1 -17 6 -29 13 -13 7
-23 9 -23 5 0 -4 -5 0 -11 10 -5 9 -17 17 -24 17 -8 0 -15 5 -15 10 0 6 -5 10
-10 10 -12 0 -28 12 -68 50 -15 13 -30 24 -34 22 -5 -1 -8 5 -8 13 0 8 -4 15
-9 15 -5 0 -13 9 -16 20 -3 11 -12 20 -20 20 -7 0 -19 14 -27 30 -7 17 -16 30
-19 30 -4 0 -10 11 -13 25 -4 14 -11 23 -16 20 -6 -3 -7 1 -4 9 3 9 2 16 -4
16 -10 0 -37 86 -33 108 1 6 -3 12 -10 12 -6 0 -9 7 -5 15 3 10 -1 15 -12 15
-15 0 -15 2 -2 10 12 8 9 9 -12 8 -15 -1 -35 -5 -45 -9z m47 -99 c0 -5 -2 -10
-4 -10 -3 0 -8 5 -11 10 -3 6 -1 10 4 10 6 0 11 -4 11 -10z m81 -213 c-10 -9
-11 -8 -5 6 3 10 9 15 12 12 3 -3 0 -11 -7 -18z m3339 -1167 c0 -5 -2 -10 -4
-10 -3 0 -8 5 -11 10 -3 6 -1 10 4 10 6 0 11 -4 11 -10z m210 -355 c14 -19 14
-19 -2 -6 -10 7 -18 18 -18 24 0 6 1 8 3 6 1 -2 9 -13 17 -24z"/>
</g>
</svg>
